<svg width="22" height="20" viewBox="0 0 22 20" fill="none" xmlns="http://www.w3.org/2000/svg">
<g clip-path="url(#clip0_319_5067)">
<path d="M17.82 1C18.819 2.15038 19.6165 3.54127 20.1633 5.08688C20.7101 6.63248 20.9947 8.30003 20.9994 9.98664C21.004 11.6733 20.7288 13.3432 20.1906 14.8934C19.6524 16.4436 18.8626 17.8412 17.87 19M15.093 4.61136C15.6925 5.30159 16.1711 6.13617 16.4992 7.06361C16.8274 7.99104 16.9981 8.99165 17.0009 10.0037C17.0037 11.0158 16.8386 12.0178 16.5156 12.948C16.1926 13.8782 15.7186 14.7168 15.123 15.4121M6.481 14.2355L8.157 16.7949C9.03 18.1283 9.467 18.7963 9.849 18.8691C10.012 18.9 10.1786 18.8807 10.3341 18.8128C10.4895 18.745 10.629 18.6307 10.74 18.4802C11.001 18.1271 11.001 17.269 11.001 15.5541V4.50394C11.001 2.78901 11.001 1.93216 10.741 1.57782C10.6299 1.42713 10.4902 1.31276 10.3346 1.2449C10.179 1.17704 10.0121 1.1578 9.849 1.1889C9.466 1.26175 9.029 1.92969 8.157 3.26312L6.48 5.82255C6.304 6.09294 6.216 6.22752 6.107 6.32382C6.0103 6.40983 5.90193 6.4738 5.787 6.51272C5.657 6.55717 5.517 6.55717 5.236 6.55717H3.813C3.056 6.55717 2.678 6.55717 2.373 6.68064C2.07618 6.80141 1.80642 7.00638 1.58535 7.27911C1.36428 7.55185 1.19805 7.88475 1.1 8.25112C1 8.62892 1 9.09562 1 10.029C1 10.9624 1 11.4291 1.1 11.8069C1.19805 12.1733 1.36428 12.5062 1.58535 12.7789C1.80642 13.0516 2.07618 13.2566 2.373 13.3774C2.678 13.5009 3.056 13.5009 3.813 13.5009H5.236C5.516 13.5009 5.656 13.5009 5.786 13.5453C5.90093 13.5842 6.0093 13.6482 6.106 13.7342C6.216 13.8305 6.305 13.9663 6.481 14.2355Z" stroke="#FFC1DA" stroke-width="1.5" stroke-linecap="round" stroke-linejoin="round"/>
</g>
<defs>
<clipPath id="clip0_319_5067">
<rect width="22" height="20" fill="white"/>
</clipPath>
</defs>
</svg>
