<svg width="18" height="20" viewBox="0 0 18 20" fill="none" xmlns="http://www.w3.org/2000/svg">
<g clip-path="url(#clip0_319_5069)">
<path d="M15.41 5.4108C15.9096 5.99545 16.3084 6.70237 16.5819 7.48794C16.8553 8.27351 16.9976 9.12106 16.9999 9.97831C17.0023 10.8356 16.8646 11.6843 16.5955 12.4722C16.3263 13.2601 15.9314 13.9705 15.435 14.5594M6.48 14.2758L8.156 16.8773C9.029 18.2326 9.466 18.9103 9.848 18.9856C10.0111 19.0169 10.1777 18.997 10.3332 18.9278C10.4887 18.8586 10.6281 18.7422 10.739 18.5891C11 18.2301 11 17.3592 11 15.6148V4.38425C11 2.63987 11 1.76893 10.74 1.41001C10.6289 1.25685 10.4892 1.1406 10.3336 1.07162C10.178 1.00264 10.0111 0.983087 9.848 1.0147C9.465 1.08874 9.028 1.76642 8.156 3.12302L6.48 5.72454C6.304 5.99812 6.216 6.13491 6.107 6.23405C6.0103 6.32147 5.90193 6.3865 5.787 6.42606C5.657 6.46998 5.517 6.46998 5.236 6.46998H3.813C3.056 6.46998 2.678 6.46998 2.373 6.59673C2.07618 6.71949 1.80642 6.92783 1.58535 7.20505C1.36428 7.48226 1.19805 7.82064 1.1 8.19303C1 8.57579 1 9.05016 1 10.0002C1 10.9502 1 11.4233 1.1 11.8073C1.19819 12.1795 1.36447 12.5176 1.58554 12.7946C1.8066 13.0716 2.07629 13.2797 2.373 13.4023C2.678 13.5291 3.056 13.5291 3.813 13.5291H5.236C5.516 13.5291 5.656 13.5291 5.786 13.5743C5.90086 13.6134 6.00923 13.678 6.106 13.765C6.216 13.8642 6.304 14.0022 6.48 14.2758Z" stroke="#FFC1DA" stroke-width="1.5" stroke-linecap="round" stroke-linejoin="round"/>
</g>
<defs>
<clipPath id="clip0_319_5069">
<rect width="18" height="20" fill="white"/>
</clipPath>
</defs>
</svg>
