<svg width="19" height="22" viewBox="0 0 19 22" fill="none" xmlns="http://www.w3.org/2000/svg">
<g clip-path="url(#clip0_346_4404)">
<path d="M18 21L1 1M13.75 9C14.2855 9.767 14.6 10.705 14.6 11.72C14.6 12.164 14.5396 12.593 14.4266 13M16.3 7C17.3625 8.23 18 9.795 18 11.5C18 12.916 17.5606 14.237 16.8015 15.348M11.2 13C11.2 16.145 11.2 18.531 10.4129 18.923C9.6258 19.314 8.6993 18.203 6.84715 15.978C5.88665 14.826 5.3401 14.571 3.975 14.571C3.0298 14.571 1.87295 14.719 1.28645 13.664C1 13.15 1 12.434 1 11C1 9.567 1 8.85 1.28645 8.336C1.87295 7.281 3.02895 7.429 3.975 7.429C4.91595 7.429 5.55345 7.439 6.066 6.96M11.2 8.5C11.2 5.355 11.2221 3.469 10.435 3.077C9.7805 2.751 9.1022 3.467 7.8 5" stroke="#FFC1DA" stroke-width="1.5" stroke-linecap="round" stroke-linejoin="round"/>
</g>
<defs>
<clipPath id="clip0_346_4404">
<rect width="19" height="22" fill="white"/>
</clipPath>
</defs>
</svg>
