<svg width="30" height="20" viewBox="0 0 30 20" fill="none" xmlns="http://www.w3.org/2000/svg">
<g clip-path="url(#clip0_319_5063)">
<path d="M22.2857 0.857143V19.1429C22.2857 19.3702 22.1954 19.5882 22.0347 19.749C21.8739 19.9097 21.6559 20 21.4286 20C21.2012 20 20.9832 19.9097 20.8225 19.749C20.6617 19.5882 20.5714 19.3702 20.5714 19.1429V0.857143C20.5714 0.629814 20.6617 0.411797 20.8225 0.251051C20.9832 0.0903058 21.2012 0 21.4286 0C21.6559 0 21.8739 0.0903058 22.0347 0.251051C22.1954 0.411797 22.2857 0.629814 22.2857 0.857143ZM28.2857 0C28.0584 0 27.8404 0.0903058 27.6796 0.251051C27.5189 0.411797 27.4286 0.629814 27.4286 0.857143V19.1429C27.4286 19.3702 27.5189 19.5882 27.6796 19.749C27.8404 19.9097 28.0584 20 28.2857 20C28.513 20 28.7311 19.9097 28.8918 19.749C29.0526 19.5882 29.1429 19.3702 29.1429 19.1429V0.857143C29.1429 0.629814 29.0526 0.411797 28.8918 0.251051C28.7311 0.0903058 28.513 0 28.2857 0ZM16.5714 10C16.5717 10.3322 16.4879 10.659 16.3278 10.95C16.1677 11.241 15.9364 11.4867 15.6557 11.6643L3.05857 19.6857C2.75895 19.8775 2.41333 19.9854 2.05779 19.9981C1.70226 20.0107 1.34984 19.9277 1.03734 19.7576C0.724849 19.5876 0.463734 19.3368 0.281263 19.0314C0.0987916 18.726 0.00165656 18.3772 0 18.0214V1.97857C0.00165656 1.62281 0.0987916 1.27402 0.281263 0.968617C0.463734 0.663213 0.724849 0.412396 1.03734 0.242355C1.34984 0.0723145 1.70226 -0.0107143 2.05779 0.00193841C2.41333 0.0145911 2.75895 0.122461 3.05857 0.314286L15.6557 8.33571C15.9364 8.51325 16.1677 8.75898 16.3278 9.05C16.4879 9.34102 16.5717 9.66784 16.5714 10ZM14.8571 10C14.8576 9.95617 14.8466 9.91297 14.8253 9.87465C14.804 9.83634 14.7732 9.80421 14.7357 9.78143L2.14286 1.76C2.10058 1.73143 2.05101 1.71557 2 1.71429C1.95015 1.71414 1.90106 1.72641 1.85714 1.75C1.81409 1.77061 1.77779 1.80305 1.7525 1.84352C1.7272 1.884 1.71395 1.93084 1.71429 1.97857V18.0214C1.71395 18.0692 1.7272 18.116 1.7525 18.1565C1.77779 18.197 1.81409 18.2294 1.85714 18.25C1.90098 18.2751 1.95095 18.2874 2.00142 18.2857C2.0519 18.2839 2.10088 18.2681 2.14286 18.24L14.7414 10.2186C14.7778 10.1951 14.8076 10.1627 14.8278 10.1244C14.8481 10.0861 14.8582 10.0433 14.8571 10Z" fill="#FFC1DA"/>
</g>
<defs>
<clipPath id="clip0_319_5063">
<rect width="30" height="20" fill="white"/>
</clipPath>
</defs>
</svg>
