<svg width="18" height="22" viewBox="0 0 18 22" fill="none" xmlns="http://www.w3.org/2000/svg">
<g clip-path="url(#clip0_322_5074)">
<path d="M1 5C1 3.114 1 2.172 1.4688 1.586C1.9376 1 2.6912 1 4.2 1C5.7088 1 6.4624 1 6.9312 1.586C7.4 2.172 7.4 3.114 7.4 5V17C7.4 18.886 7.4 19.828 6.9312 20.414C6.4624 21 5.7088 21 4.2 21C2.6912 21 1.9376 21 1.4688 20.414C1 19.828 1 18.886 1 17V5ZM10.6 5C10.6 3.114 10.6 2.172 11.0688 1.586C11.5376 1 12.2912 1 13.8 1C15.3088 1 16.0624 1 16.5312 1.586C17 2.172 17 3.114 17 5V17C17 18.886 17 19.828 16.5312 20.414C16.0624 21 15.3088 21 13.8 21C12.2912 21 11.5376 21 11.0688 20.414C10.6 19.828 10.6 18.886 10.6 17V5Z" stroke="#FFC1DA" stroke-width="1.5"/>
</g>
<defs>
<clipPath id="clip0_322_5074">
<rect width="18" height="22" fill="white"/>
</clipPath>
</defs>
</svg>
