<?xml version="1.0" standalone="no"?>
<!DOCTYPE svg PUBLIC "-//W3C//DTD SVG 20010904//EN"
 "http://www.w3.org/TR/2001/REC-SVG-20010904/DTD/svg10.dtd">
<svg version="1.0" xmlns="http://www.w3.org/2000/svg"
 width="32.000000pt" height="32.000000pt" viewBox="0 0 32.000000 32.000000"
 preserveAspectRatio="xMidYMid meet">

<g transform="translate(0.000000,32.000000) scale(0.100000,-0.100000)"
fill="#000000" stroke="none">
<path d="M112 247 c-26 -27 -28 -54 -6 -85 14 -20 14 -23 -1 -28 -16 -6 -45
-54 -45 -74 0 -20 15 -9 30 23 18 38 58 55 98 41 15 -5 33 -23 42 -41 15 -32
30 -43 30 -23 0 20 -29 68 -45 74 -15 5 -15 8 -1 28 22 32 20 61 -7 86 -30 28
-68 28 -95 -1z m82 -13 c31 -30 9 -84 -34 -84 -24 0 -50 26 -50 50 0 24 26 50
50 50 10 0 26 -7 34 -16z"/>
</g>
</svg>
