<svg width="28" height="28" viewBox="0 0 28 28" fill="none" xmlns="http://www.w3.org/2000/svg">
<path d="M14.4137 19.5138C14.4833 19.4441 14.5386 19.3614 14.5763 19.2704C14.614 19.1794 14.6334 19.0819 14.6334 18.9834C14.6334 18.8849 14.614 18.7873 14.5763 18.6963C14.5386 18.6053 14.4833 18.5226 14.4137 18.453L11.0441 15.0834H19.5833C19.7822 15.0834 19.9729 15.0044 20.1136 14.8637C20.2542 14.7231 20.3333 14.5323 20.3333 14.3334C20.3333 14.1345 20.2542 13.9437 20.1136 13.803C19.9729 13.6624 19.7822 13.5834 19.5833 13.5834H11.0441L14.4137 10.2138C14.5543 10.0731 14.6334 9.88231 14.6334 9.68337C14.6334 9.48444 14.5543 9.29365 14.4137 9.15297C14.273 9.0123 14.0822 8.93328 13.8833 8.93328C13.6843 8.93328 13.4935 9.0123 13.3529 9.15297L8.70285 13.803C8.63319 13.8726 8.57792 13.9553 8.54022 14.0463C8.50252 14.1373 8.48311 14.2349 8.48311 14.3334C8.48311 14.4319 8.50252 14.5294 8.54022 14.6204C8.57792 14.7114 8.63319 14.7941 8.70285 14.8638L13.3529 19.5138C13.4225 19.5834 13.5052 19.6387 13.5962 19.6764C13.6872 19.7141 13.7847 19.7335 13.8833 19.7335C13.9818 19.7335 14.0793 19.7141 14.1703 19.6764C14.2613 19.6387 14.344 19.5834 14.4137 19.5138ZM14.3333 26.3334C20.9609 26.3334 26.3333 20.961 26.3333 14.3334C26.3333 7.70577 20.9609 2.33337 14.3333 2.33337C7.70565 2.33337 2.33325 7.70577 2.33325 14.3334C2.33325 20.961 7.70565 26.3334 14.3333 26.3334ZM24.8333 14.3334C24.8333 20.1324 20.1323 24.8334 14.3333 24.8334C8.53425 24.8334 3.83325 20.1324 3.83325 14.3334C3.83325 8.53437 8.53425 3.83337 14.3333 3.83337C20.1323 3.83337 24.8333 8.53437 24.8333 14.3334Z" fill="#3D3D3D"/>
</svg>
