<svg width="10" height="10" viewBox="0 0 10 10" fill="none" xmlns="http://www.w3.org/2000/svg">
<g id="iconRadio" clip-path="url(#clip0_222_4055)">
<path id="Vector" fill-rule="evenodd" clip-rule="evenodd" d="M5 9C6.06087 9 7.07828 8.57857 7.82843 7.82843C8.57857 7.07828 9 6.06087 9 5C9 3.93913 8.57857 2.92172 7.82843 2.17157C7.07828 1.42143 6.06087 1 5 1C3.93913 1 2.92172 1.42143 2.17157 2.17157C1.42143 2.92172 1 3.93913 1 5C1 6.06087 1.42143 7.07828 2.17157 7.82843C2.92172 8.57857 3.93913 9 5 9ZM5 10C7.7615 10 10 7.7615 10 5C10 2.2385 7.7615 0 5 0C2.2385 0 0 2.2385 0 5C0 7.7615 2.2385 10 5 10Z" fill="#3D3D3D"/>
</g>
<defs>
<clipPath id="clip0_222_4055">
<rect width="10" height="10" fill="white"/>
</clipPath>
</defs>
</svg>
