<svg width="28" height="29" viewBox="0 0 28 29" fill="none" xmlns="http://www.w3.org/2000/svg">
<g id="Icon mail">
<path id="Vector" d="M5.38533 22.6667C4.84789 22.6667 4.3995 22.487 4.04017 22.1277C3.68083 21.7684 3.50078 21.3196 3.5 20.7814V8.21871C3.5 7.68126 3.68006 7.23287 4.04017 6.87354C4.40028 6.51421 4.84828 6.33415 5.38417 6.33337H22.6158C23.1525 6.33337 23.6005 6.51343 23.9598 6.87354C24.3192 7.23365 24.4992 7.68204 24.5 8.21871V20.7825C24.5 21.3192 24.3199 21.7676 23.9598 22.1277C23.5997 22.4878 23.1517 22.6675 22.6158 22.6667H5.38533ZM14 14.6354L4.66667 8.53254V20.7825C4.66667 20.9918 4.73394 21.1637 4.8685 21.2982C5.00306 21.4328 5.17533 21.5 5.38533 21.5H22.6158C22.8251 21.5 22.9969 21.4328 23.1315 21.2982C23.2661 21.1637 23.3333 20.9914 23.3333 20.7814V8.53137L14 14.6354ZM14 13.3334L22.974 7.50004H5.026L14 13.3334ZM4.66667 8.53254V7.50004V20.7825C4.66667 20.9918 4.73394 21.1637 4.8685 21.2982C5.00306 21.4328 5.17533 21.5 5.38533 21.5H4.66667V8.53254Z" fill="#3D3D3D"/>
</g>
</svg>
