<svg width="25" height="25" viewBox="0 0 25 25" fill="none" xmlns="http://www.w3.org/2000/svg">
<g id="icono cookie">
<path id="Vector" d="M7.4999 11.25C7.83142 11.25 8.14936 11.1183 8.38378 10.8839C8.6182 10.6495 8.7499 10.3315 8.7499 10C8.7499 9.66848 8.6182 9.35054 8.38378 9.11612C8.14936 8.8817 7.83142 8.75 7.4999 8.75C7.16838 8.75 6.85044 8.8817 6.61602 9.11612C6.3816 9.35054 6.2499 9.66848 6.2499 10C6.2499 10.3315 6.3816 10.6495 6.61602 10.8839C6.85044 11.1183 7.16838 11.25 7.4999 11.25ZM12.4999 13.75C12.8314 13.75 13.1494 13.6183 13.3838 13.3839C13.6182 13.1495 13.7499 12.8315 13.7499 12.5C13.7499 12.1685 13.6182 11.8505 13.3838 11.6161C13.1494 11.3817 12.8314 11.25 12.4999 11.25C12.1684 11.25 11.8504 11.3817 11.616 11.6161C11.3816 11.8505 11.2499 12.1685 11.2499 12.5C11.2499 12.8315 11.3816 13.1495 11.616 13.3839C11.8504 13.6183 12.1684 13.75 12.4999 13.75ZM16.2499 17.5C16.2499 17.8315 16.1182 18.1495 15.8838 18.3839C15.6494 18.6183 15.3314 18.75 14.9999 18.75C14.6684 18.75 14.3504 18.6183 14.116 18.3839C13.8816 18.1495 13.7499 17.8315 13.7499 17.5C13.7499 17.1685 13.8816 16.8505 14.116 16.6161C14.3504 16.3817 14.6684 16.25 14.9999 16.25C15.3314 16.25 15.6494 16.3817 15.8838 16.6161C16.1182 16.8505 16.2499 17.1685 16.2499 17.5ZM8.7499 17.5C9.08142 17.5 9.39936 17.3683 9.63378 17.1339C9.8682 16.8995 9.9999 16.5815 9.9999 16.25C9.9999 15.9185 9.8682 15.6005 9.63378 15.3661C9.39936 15.1317 9.08142 15 8.7499 15C8.41838 15 8.10044 15.1317 7.86602 15.3661C7.6316 15.6005 7.4999 15.9185 7.4999 16.25C7.4999 16.5815 7.6316 16.8995 7.86602 17.1339C8.10044 17.3683 8.41838 17.5 8.7499 17.5ZM12.4999 2.5C10.445 2.50017 8.44001 3.1334 6.75777 4.31353C5.07552 5.49366 3.79767 7.16339 3.09809 9.09556C2.3985 11.0277 2.31115 13.1285 2.8479 15.1121C3.38466 17.0956 4.51947 18.8657 6.09793 20.1814C7.67639 21.4971 9.62187 22.2946 11.6697 22.4654C13.7175 22.6362 15.7682 22.1719 17.5428 21.1359C19.3174 20.0998 20.7297 18.5421 21.5876 16.6748C22.4455 14.8076 22.7073 12.7214 22.3374 10.7C22.3162 10.5846 22.2629 10.4775 22.1837 10.391C22.1045 10.3045 22.0025 10.242 21.8894 10.2107C21.7764 10.1794 21.6568 10.1806 21.5444 10.214C21.4319 10.2475 21.3312 10.312 21.2536 10.4C20.9183 10.782 20.4744 11.0527 19.9813 11.176C19.4881 11.2993 18.9691 11.2693 18.4934 11.0901C18.0177 10.9108 17.6079 10.5908 17.3188 10.1727C17.0296 9.75465 16.8748 9.25835 16.8749 8.75C16.8752 8.59019 16.8208 8.4351 16.7207 8.31049C16.6207 8.18587 16.481 8.09925 16.3249 8.065C15.8854 7.96605 15.4808 7.75017 15.1539 7.44019C14.8269 7.13022 14.5899 6.73766 14.4677 6.30403C14.3455 5.8704 14.3428 5.41181 14.4598 4.97676C14.5768 4.5417 14.8092 4.14635 15.1324 3.8325C15.2127 3.75454 15.2706 3.65644 15.3 3.54845C15.3294 3.44047 15.3293 3.32656 15.2997 3.21863C15.2701 3.1107 15.212 3.01271 15.1316 2.9349C15.0511 2.85708 14.9513 2.80229 14.8424 2.77625C14.0752 2.59208 13.2889 2.49935 12.4999 2.5ZM3.7499 12.5C3.74983 11.259 4.01375 10.0321 4.52415 8.90091C5.03454 7.7697 5.77973 6.75999 6.71024 5.93884C7.64075 5.11768 8.7353 4.50385 9.92121 4.13811C11.1071 3.77237 12.3573 3.66308 13.5886 3.8175C13.3252 4.29598 13.1695 4.82623 13.1323 5.37117C13.0952 5.91612 13.1775 6.46259 13.3736 6.97239C13.5697 7.48219 13.8748 7.94299 14.2675 8.32259C14.6603 8.70218 15.1312 8.99139 15.6474 9.17C15.7168 9.78759 15.9386 10.3783 16.2928 10.8889C16.6471 11.3995 17.1227 11.8141 17.6769 12.0953C18.2311 12.3766 18.8465 12.5157 19.4678 12.5001C20.089 12.4846 20.6967 12.3149 21.2361 12.0063C21.2445 12.1688 21.2491 12.3333 21.2499 12.5C21.2499 13.6491 21.0236 14.7869 20.5838 15.8485C20.1441 16.9101 19.4996 17.8747 18.6871 18.6872C17.8746 19.4997 16.91 20.1442 15.8484 20.584C14.7868 21.0237 13.649 21.25 12.4999 21.25C11.3508 21.25 10.213 21.0237 9.15142 20.584C8.08982 20.1442 7.12523 19.4997 6.31272 18.6872C5.5002 17.8747 4.85568 16.9101 4.41595 15.8485C3.97623 14.7869 3.7499 13.6491 3.7499 12.5Z" fill="#3D3D3D"/>
</g>
</svg>
