<svg width="25" height="25" viewBox="0 0 25 25" fill="none" xmlns="http://www.w3.org/2000/svg">
<g id="IconTarjeta">
<path id="Vector" d="M16.2947 14.7321C16.1171 14.7321 15.9467 14.8026 15.8212 14.9282C15.6956 15.0538 15.625 15.2241 15.625 15.4017C15.625 15.5793 15.6956 15.7497 15.8212 15.8752C15.9467 16.0008 16.1171 16.0714 16.2947 16.0714H19.4197C19.5973 16.0714 19.7676 16.0008 19.8932 15.8752C20.0188 15.7497 20.0893 15.5793 20.0893 15.4017C20.0893 15.2241 20.0188 15.0538 19.8932 14.9282C19.7676 14.8026 19.5973 14.7321 19.4197 14.7321H16.2947ZM1.78931 7.81245C1.78931 6.92445 2.14206 6.07281 2.76998 5.4449C3.39789 4.81699 4.24952 4.46423 5.13752 4.46423H19.8661C20.7541 4.46423 21.6057 4.81699 22.2336 5.4449C22.8616 6.07281 23.2143 6.92445 23.2143 7.81245V17.1874C23.2143 18.0754 22.8616 18.9271 22.2336 19.555C21.6057 20.1829 20.7541 20.5357 19.8661 20.5357H5.13841C4.25041 20.5357 3.39878 20.1829 2.77087 19.555C2.14296 18.9271 1.7902 18.0754 1.7902 17.1874L1.78931 7.81245ZM5.13752 5.80352C4.60472 5.80352 4.09374 6.01517 3.71699 6.39192C3.34025 6.76867 3.12859 7.27965 3.12859 7.81245V8.48209H21.875V7.81245C21.875 7.27965 21.6634 6.76867 21.2866 6.39192C20.9099 6.01517 20.3989 5.80352 19.8661 5.80352H5.13752ZM3.12859 17.1874C3.12859 17.7202 3.34025 18.2312 3.71699 18.608C4.09374 18.9847 4.60472 19.1964 5.13752 19.1964H19.8661C20.3989 19.1964 20.9099 18.9847 21.2866 18.608C21.6634 18.2312 21.875 17.7202 21.875 17.1874V9.82138H3.12949L3.12859 17.1874Z" fill="#3D3D3D"/>
</g>
</svg>
