<svg width="10" height="10" viewBox="0 0 10 10" fill="none" xmlns="http://www.w3.org/2000/svg">
<g id="Icon checkbox">
<path id="Vector" d="M8.125 1.25H1.875C1.70924 1.25 1.55027 1.31585 1.43306 1.43306C1.31585 1.55027 1.25 1.70924 1.25 1.875V8.125C1.25 8.29076 1.31585 8.44973 1.43306 8.56694C1.55027 8.68415 1.70924 8.75 1.875 8.75H8.125C8.29076 8.75 8.44973 8.68415 8.56694 8.56694C8.68415 8.44973 8.75 8.29076 8.75 8.125V1.875C8.75 1.70924 8.68415 1.55027 8.56694 1.43306C8.44973 1.31585 8.29076 1.25 8.125 1.25ZM1.875 8.125V1.875H8.125V8.125H1.875Z" fill="#3D3D3D"/>
</g>
</svg>
