<svg width="25" height="17" viewBox="0 0 25 17" fill="none" xmlns="http://www.w3.org/2000/svg">
<g id="Icon MC" clip-path="url(#clip0_55_5280)">
<path id="Vector" d="M1.16327 0.858912C0.521024 0.858912 0 1.38076 0 2.02464V15.4263C0 16.07 0.521099 16.592 1.16327 16.592H23.8367C24.479 16.592 25 16.0701 25 15.4262V2.02461C25 1.38083 24.4789 0.858887 23.8367 0.858887H1.16325L1.16327 0.858912ZM8.19764 2.75274C9.62467 2.75274 10.9353 3.25026 11.964 4.08131C11.0985 4.85741 10.4529 5.87708 10.1344 7.03283H10.6336C10.9276 6.07938 11.4617 5.2305 12.1656 4.55731C12.8696 5.2305 13.4036 6.07938 13.6976 7.03283H14.2047C13.8817 5.88317 13.2352 4.86959 12.3703 4.09854C13.4011 3.25695 14.7168 2.75272 16.15 2.75272C19.4573 2.75272 22.1383 5.43966 22.1383 8.7544C22.1383 12.0691 19.4573 14.7561 16.15 14.7561C14.693 14.7561 13.357 14.2349 12.3187 13.368C13.2475 12.5583 13.9322 11.4728 14.2453 10.238H13.757C13.479 11.2744 12.9194 12.1962 12.1656 12.9171C11.4118 12.1962 10.853 11.2744 10.575 10.238H10.1101C10.4251 11.4549 11.1008 12.5252 12.0156 13.3273C10.9792 14.1835 9.64849 14.6981 8.19762 14.6981C4.89037 14.6981 2.20937 12.0241 2.20937 8.72544C2.20937 5.42676 4.89037 2.75274 8.19764 2.75274ZM15.7008 6.97175C14.9812 6.97175 14.2812 7.60213 14.2812 8.78572C14.2812 9.57056 14.6593 10.0885 15.4031 10.0885C15.6134 10.0885 15.9484 10.0023 15.9484 10.0023L16.0594 9.31653C16.0594 9.31653 15.7536 9.47153 15.5437 9.47153C15.1016 9.47153 14.9242 9.13079 14.9242 8.7646C14.9242 8.02171 15.3046 7.61293 15.7281 7.61293C16.0457 7.61293 16.3008 7.793 16.3008 7.793L16.4023 7.12598C16.4023 7.12598 16.0248 6.97175 15.7008 6.97175ZM21.75 7.0297L21.1242 7.03125L20.9898 7.85644C20.9898 7.85644 20.7546 7.53622 20.3867 7.53622C19.8147 7.53622 19.3383 8.21715 19.3383 9.00024C19.3383 9.50573 19.5918 10.0015 20.1117 10.0015C20.4857 10.0015 20.693 9.744 20.693 9.744L20.6656 9.96397H21.2734L21.75 7.0297ZM3.82655 7.03829L3.32812 9.97962H3.9289L4.3086 7.76171L4.36485 9.97962H4.79452L5.59609 7.76171L5.24062 9.97962H5.87889L6.37109 7.03829H5.38359L4.76875 8.84286L4.73672 7.03832H3.82657L3.82655 7.03829ZM10.1031 7.22932C10.0895 7.24297 9.73984 9.26377 9.73984 9.50989C9.73984 9.8743 9.94367 10.0371 10.2305 10.0344C10.436 10.0327 10.5951 9.98095 10.6687 9.95928C10.6764 9.9572 10.6914 9.95302 10.6914 9.95302L10.7687 9.42691C10.7267 9.42691 10.6647 9.44493 10.6101 9.44493C10.396 9.44493 10.3723 9.33076 10.3859 9.24606L10.5586 8.17273H10.8844L10.9633 7.59101H10.6562L10.7187 7.22932H10.1031ZM17.3648 7.52527C16.9455 7.52527 16.6242 7.66383 16.6242 7.66383L16.5351 8.20404C16.5351 8.20404 16.8005 8.09364 17.2016 8.09364C17.4293 8.09364 17.5961 8.11974 17.5961 8.30972C17.5961 8.42511 17.5758 8.46787 17.5758 8.46787C17.5758 8.46787 17.3957 8.45221 17.3125 8.45221C16.7837 8.45221 16.2281 8.68445 16.2281 9.38307C16.2281 9.93353 16.5928 10.0595 16.8187 10.0595C17.2502 10.0595 17.4362 9.77226 17.4461 9.77139L17.4258 10.011H17.9641L18.2047 8.28233C18.2048 7.54884 17.5813 7.52524 17.3648 7.52524V7.52527ZM7.26717 7.5284C6.84632 7.5284 6.52342 7.66697 6.52342 7.66697L6.43437 8.20717C6.43437 8.20717 6.70062 8.09677 7.10312 8.09677C7.33167 8.09677 7.49922 8.12297 7.49922 8.31285C7.49922 8.42819 7.47889 8.471 7.47889 8.471C7.47889 8.471 7.29832 8.45535 7.21484 8.45535C6.68402 8.45535 6.12657 8.68721 6.12657 9.38543C6.12657 9.93558 6.49202 10.0618 6.71874 10.0618C7.15177 10.0618 7.33849 9.77459 7.34844 9.77374L7.32812 10.0133H7.86874L8.11014 8.28546C8.11014 7.5524 7.48447 7.52837 7.26717 7.52837V7.5284ZM9.17654 7.5284C8.72462 7.5284 8.26562 7.71121 8.26562 8.33557C8.26562 9.04301 9.03047 8.97153 9.03047 9.26953C9.03047 9.46845 8.81702 9.48486 8.65234 9.48486C8.36734 9.48486 8.11107 9.38618 8.11014 9.39091L8.02812 9.9311C8.04287 9.93568 8.20157 10.007 8.71407 10.007C8.85167 10.007 9.63827 10.0421 9.63827 9.22101C9.63827 8.45342 8.91014 8.60556 8.91014 8.29719C8.91014 8.14367 9.02837 8.09521 9.24529 8.09521C9.33144 8.09521 9.66329 8.12262 9.66329 8.12262L9.73984 7.57693C9.73984 7.577 9.52569 7.5284 9.17654 7.5284ZM12.0015 7.5284C11.3735 7.52852 10.9086 8.20525 10.9086 8.9697C10.9086 9.85203 11.4911 10.0618 11.9875 10.0618C12.4456 10.0618 12.6476 9.95928 12.6476 9.95928L12.757 9.35724C12.757 9.35724 12.4085 9.51069 12.0937 9.51069C11.4231 9.51069 11.5406 9.01041 11.5406 9.01041H12.8101C12.8101 9.01041 12.8922 8.60611 12.8922 8.44124C12.8922 8.02988 12.6873 7.5284 12.0015 7.5284ZM14.2758 7.55423C13.9929 7.55423 13.7828 7.9355 13.7828 7.9355L13.839 7.58554H13.2515L12.857 10.0016H13.5062C13.6901 8.96985 13.7237 8.13212 14.1625 8.28546C14.2393 7.88613 14.3138 7.73185 14.3976 7.56285C14.3976 7.56285 14.3583 7.55423 14.2758 7.55423ZM19.5359 7.55423C19.253 7.55423 19.043 7.9355 19.043 7.9355L19.0992 7.58554H18.5117L18.1172 10.0016H18.7656C18.9496 8.96985 18.984 8.13212 19.4226 8.28546C19.4996 7.88613 19.574 7.73185 19.6578 7.56285C19.6578 7.56285 19.6184 7.55423 19.5359 7.55423ZM11.9984 8.07329C12.3551 8.07329 12.2898 8.47674 12.2898 8.50936H11.5875C11.5875 8.46772 11.6539 8.07329 11.9984 8.07329ZM20.4852 8.12027C20.7122 8.12019 20.8289 8.27387 20.8289 8.6354C20.8289 8.96344 20.6638 9.40186 20.3219 9.40186C20.0949 9.40186 19.9883 9.21404 19.9883 8.9196C19.9883 8.43814 20.2081 8.12027 20.4852 8.12027ZM17.3656 8.94229C17.4582 8.94242 17.4774 8.95144 17.493 8.95562C17.4907 8.95525 17.4903 8.95567 17.4992 8.95718C17.5109 9.06478 17.4343 9.56941 17.064 9.56941C16.8731 9.56941 16.8242 9.41727 16.8242 9.32748C16.8242 9.15241 16.9152 8.94229 17.3656 8.94229ZM7.26797 8.94465C7.37314 8.94477 7.38462 8.95655 7.40234 8.95953C7.41409 9.06708 7.33719 9.57096 6.96562 9.57096C6.77394 9.57096 6.72422 9.41955 6.72422 9.32983C6.72422 9.15487 6.81572 8.94465 7.26797 8.94465Z" fill="#3D3D3D"/>
</g>
<defs>
<clipPath id="clip0_55_5280">
<rect width="25" height="17" fill="white"/>
</clipPath>
</defs>
</svg>
