<svg width="28" height="29" viewBox="0 0 28 29" fill="none" xmlns="http://www.w3.org/2000/svg">
<g id="Icon instagram">
<path id="Vector" d="M13.9999 8.89185C10.8964 8.89185 8.39168 11.3965 8.39168 14.5001C8.39168 17.6036 10.8964 20.1083 13.9999 20.1083C17.1034 20.1083 19.6081 17.6036 19.6081 14.5001C19.6081 11.3965 17.1034 8.89185 13.9999 8.89185ZM13.9999 18.145C11.9929 18.145 10.355 16.5071 10.355 14.5001C10.355 12.493 11.9929 10.8551 13.9999 10.8551C16.0069 10.8551 17.6448 12.493 17.6448 14.5001C17.6448 16.5071 16.0069 18.145 13.9999 18.145ZM19.8378 7.35513C19.1132 7.35513 18.528 7.94029 18.528 8.6649C18.528 9.38951 19.1132 9.97467 19.8378 9.97467C20.5624 9.97467 21.1475 9.39224 21.1475 8.6649C21.1478 8.49284 21.114 8.32242 21.0483 8.16342C20.9825 8.00441 20.8861 7.85994 20.7644 7.73827C20.6427 7.61661 20.4983 7.52014 20.3393 7.45439C20.1803 7.38865 20.0098 7.35492 19.8378 7.35513ZM24.9319 14.5001C24.9319 12.9907 24.9456 11.495 24.8608 9.98834C24.7761 8.23834 24.3768 6.68521 23.0972 5.40553C21.8147 4.1231 20.2643 3.72662 18.5143 3.64185C17.005 3.55709 15.5093 3.57076 14.0026 3.57076C12.4932 3.57076 10.9975 3.55709 9.4909 3.64185C7.7409 3.72662 6.18778 4.12584 4.90809 5.40553C3.62567 6.68795 3.22918 8.23834 3.14442 9.98834C3.05965 11.4977 3.07332 12.9934 3.07332 14.5001C3.07332 16.0067 3.05965 17.5051 3.14442 19.0118C3.22918 20.7618 3.6284 22.3149 4.90809 23.5946C6.19051 24.877 7.7409 25.2735 9.4909 25.3583C11.0003 25.443 12.496 25.4294 14.0026 25.4294C15.512 25.4294 17.0077 25.443 18.5143 25.3583C20.2643 25.2735 21.8175 24.8743 23.0972 23.5946C24.3796 22.3122 24.7761 20.7618 24.8608 19.0118C24.9483 17.5051 24.9319 16.0094 24.9319 14.5001ZM22.5257 20.9477C22.3261 21.4454 22.0854 21.8172 21.6999 22.2001C21.3143 22.5856 20.9452 22.8262 20.4475 23.0258C19.0093 23.5973 15.594 23.4688 13.9999 23.4688C12.4057 23.4688 8.98778 23.5973 7.54949 23.0286C7.05184 22.829 6.67996 22.5883 6.29715 22.2028C5.9116 21.8172 5.67098 21.4481 5.47137 20.9504C4.90262 19.5094 5.03114 16.0942 5.03114 14.5001C5.03114 12.9059 4.90262 9.48795 5.47137 8.04967C5.67098 7.55201 5.9116 7.18013 6.29715 6.79732C6.6827 6.41451 7.05184 6.17115 7.54949 5.97154C8.98778 5.40279 12.4057 5.53131 13.9999 5.53131C15.594 5.53131 19.012 5.40279 20.4503 5.97154C20.9479 6.17115 21.3198 6.41178 21.7026 6.79732C22.0882 7.18287 22.3288 7.55201 22.5284 8.04967C23.0972 9.48795 22.9686 12.9059 22.9686 14.5001C22.9686 16.0942 23.0972 19.5094 22.5257 20.9477Z" fill="#3D3D3D"/>
</g>
</svg>
