<svg width="25" height="25" viewBox="0 0 25 25" fill="none" xmlns="http://www.w3.org/2000/svg">
<g id="Icon basura">
<path id="Vector" d="M20.8334 9.0625H4.16675C3.95955 9.0625 3.76083 8.98019 3.61432 8.83368C3.46781 8.68716 3.3855 8.48845 3.3855 8.28125C3.3855 8.07405 3.46781 7.87534 3.61432 7.72882C3.76083 7.58231 3.95955 7.5 4.16675 7.5H20.8334C21.0406 7.5 21.2393 7.58231 21.3858 7.72882C21.5324 7.87534 21.6147 8.07405 21.6147 8.28125C21.6147 8.48845 21.5324 8.68716 21.3858 8.83368C21.2393 8.98019 21.0406 9.0625 20.8334 9.0625Z" fill="#3D3D3D"/>
<path id="Vector_2" d="M17.1249 21.6146H7.87492C7.54481 21.6372 7.2135 21.594 6.9002 21.4876C6.5869 21.3811 6.29784 21.2136 6.04979 20.9946C5.80174 20.7756 5.59962 20.5096 5.45517 20.2119C5.31071 19.9142 5.22678 19.5908 5.20825 19.2604V8.33335C5.20825 8.12615 5.29056 7.92744 5.43707 7.78092C5.58359 7.63441 5.7823 7.5521 5.9895 7.5521C6.1967 7.5521 6.39542 7.63441 6.54193 7.78092C6.68844 7.92744 6.77075 8.12615 6.77075 8.33335V19.2604C6.77075 19.6875 7.26034 20.0521 7.81242 20.0521H17.0624C17.6458 20.0521 18.1041 19.6875 18.1041 19.2604V8.33335C18.1041 8.10957 18.193 7.89496 18.3512 7.73673C18.5094 7.5785 18.7241 7.4896 18.9478 7.4896C19.1716 7.4896 19.3862 7.5785 19.5445 7.73673C19.7027 7.89496 19.7916 8.10957 19.7916 8.33335V19.2604C19.7731 19.5908 19.6891 19.9142 19.5447 20.2119C19.4002 20.5096 19.1981 20.7756 18.95 20.9946C18.702 21.2136 18.4129 21.3811 18.0996 21.4876C17.7863 21.594 17.455 21.6372 17.1249 21.6146ZM17.2499 8.07293C17.1469 8.07434 17.0447 8.05508 16.9493 8.01632C16.8539 7.97755 16.7672 7.92006 16.6944 7.84723C16.6215 7.77441 16.564 7.68772 16.5253 7.59231C16.4865 7.49689 16.4673 7.39467 16.4687 7.29168V5.7396C16.4687 5.31252 15.9687 4.94793 15.427 4.94793H9.60409C9.03117 4.94793 8.56242 5.31252 8.56242 5.7396V7.29168C8.56242 7.49888 8.48011 7.6976 8.3336 7.84411C8.18708 7.99062 7.98837 8.07293 7.78117 8.07293C7.57397 8.07293 7.37525 7.99062 7.22874 7.84411C7.08223 7.6976 6.99992 7.49888 6.99992 7.29168V5.7396C7.04025 5.08472 7.33537 4.47165 7.8221 4.03165C8.30882 3.59165 8.94847 3.35969 9.60409 3.38543H15.3958C16.0566 3.35125 16.7043 3.57941 17.1978 4.02028C17.6914 4.46115 17.9909 5.07906 18.0312 5.7396V7.29168C18.0325 7.39515 18.0134 7.49786 17.9747 7.59385C17.9361 7.68985 17.8787 7.7772 17.8061 7.85086C17.7334 7.92451 17.6468 7.98299 17.5513 8.0229C17.4558 8.06281 17.3534 8.08336 17.2499 8.08335V8.07293Z" fill="#3D3D3D"/>
<path id="Vector_3" d="M10.6458 17.7084C10.4394 17.7057 10.2422 17.6225 10.0963 17.4766C9.95038 17.3306 9.8672 17.1335 9.8645 16.9271V12.2084C9.8645 12.0012 9.94681 11.8025 10.0933 11.6559C10.2398 11.5094 10.4386 11.4271 10.6458 11.4271C10.853 11.4271 11.0517 11.5094 11.1982 11.6559C11.3447 11.8025 11.427 12.0012 11.427 12.2084V16.9167C11.4284 17.0202 11.4092 17.1229 11.3705 17.2189C11.3319 17.3149 11.2746 17.4022 11.2019 17.4759C11.1292 17.5495 11.0426 17.608 10.9471 17.6479C10.8517 17.6878 10.7492 17.7084 10.6458 17.7084ZM14.3541 17.7084C14.1469 17.7084 13.9482 17.6261 13.8017 17.4796C13.6551 17.333 13.5728 17.1343 13.5728 16.9271V12.2084C13.5728 12.0012 13.6551 11.8025 13.8017 11.6559C13.9482 11.5094 14.1469 11.4271 14.3541 11.4271C14.5613 11.4271 14.76 11.5094 14.9065 11.6559C15.053 11.8025 15.1353 12.0012 15.1353 12.2084V16.9167C15.1354 17.1249 15.0534 17.3247 14.9072 17.4728C14.7609 17.621 14.5622 17.7056 14.3541 17.7084Z" fill="#3D3D3D"/>
</g>
</svg>
