<svg width="28" height="29" viewBox="0 0 28 29" fill="none" xmlns="http://www.w3.org/2000/svg">
<g id="Icon whatsapp">
<path id="Vector" d="M10.9355 8.53171C11.149 8.53755 11.3859 8.54921 11.611 9.04855C11.7604 9.38105 12.0112 9.99355 12.2165 10.4929C12.3764 10.8814 12.507 11.201 12.5397 11.2664C12.6144 11.4157 12.661 11.5872 12.563 11.789L12.5304 11.8567C12.464 12.0137 12.3735 12.1594 12.262 12.2884L12.0952 12.4867C11.996 12.608 11.8969 12.727 11.8129 12.811C11.6624 12.9604 11.5072 13.1214 11.6799 13.42C11.8525 13.7187 12.4592 14.701 13.354 15.4932C14.0085 16.0835 14.7595 16.557 15.5742 16.8932C15.6559 16.9282 15.722 16.9578 15.7725 16.9819C16.0724 17.1312 16.2509 17.1079 16.4235 16.9072C16.5974 16.7054 17.1737 16.0334 17.3767 15.7347C17.5727 15.436 17.7734 15.4827 18.051 15.5854C18.3287 15.6892 19.8057 16.4137 20.1055 16.5619L20.2724 16.6435C20.4812 16.7427 20.6224 16.8115 20.683 16.9119C20.7577 17.039 20.7577 17.6352 20.5104 18.3375C20.256 19.0375 19.0322 19.7095 18.478 19.7609L18.3205 19.7795C17.8119 19.8402 17.1679 19.9195 14.8719 19.0154C12.0415 17.9024 10.1737 15.142 9.79687 14.5832L9.73504 14.4945L9.72804 14.4852C9.55654 14.2554 8.50537 12.8495 8.50537 11.3982C8.50537 10.0099 9.1902 9.28655 9.5017 8.95755L9.55654 8.89921C9.65736 8.78531 9.78056 8.69339 9.91845 8.62916C10.0563 8.56493 10.206 8.52977 10.358 8.52588C10.5599 8.52588 10.7629 8.52588 10.9355 8.53171Z" fill="#3D3D3D"/>
<path id="Vector_2" fill-rule="evenodd" clip-rule="evenodd" d="M3.11667 25.0529C3.09468 25.132 3.09395 25.2155 3.11454 25.2949C3.13514 25.3744 3.17633 25.447 3.23396 25.5055C3.29159 25.5639 3.36362 25.6062 3.44278 25.6279C3.52194 25.6496 3.60544 25.6501 3.68483 25.6292L9.05967 24.2246C10.765 25.1482 12.6736 25.6322 14.613 25.6327H14.6177C21.018 25.6327 26.2353 20.4457 26.2353 14.0687C26.2393 12.548 25.9407 11.0417 25.3571 9.6375C24.7734 8.23326 23.9163 6.95912 22.8357 5.88922C21.7568 4.81054 20.4754 3.95579 19.065 3.37415C17.6547 2.79251 16.1432 2.49545 14.6177 2.50005C8.21733 2.50005 3 7.68705 3 14.0629C3 16.0917 3.53433 18.0844 4.55167 19.8426L3.11667 25.0529ZM6.23983 20.3069C6.30152 20.083 6.31802 19.849 6.28838 19.6187C6.25873 19.3883 6.18353 19.1662 6.06717 18.9652C5.20517 17.4752 4.75087 15.7843 4.75 14.0629C4.75 8.66122 9.17517 4.25005 14.6177 4.25005C17.266 4.25005 19.737 5.27322 21.6013 7.12939C22.5186 8.03671 23.246 9.1176 23.7412 10.309C24.2364 11.5004 24.4893 12.7785 24.4853 14.0687C24.4853 19.4704 20.0602 23.8827 14.6177 23.8827H14.6118C12.9641 23.8819 11.3426 23.4705 9.89383 22.6857C9.50333 22.4743 9.04707 22.4193 8.6175 22.5317L5.39517 23.3729L6.23983 20.3069Z" fill="#3D3D3D"/>
</g>
</svg>
