<svg width="29" height="29" viewBox="0 0 29 29" fill="none" xmlns="http://www.w3.org/2000/svg">
<g id="Icono bolsa compra MEF">
<g id="material-symbols-light:shopping-bag-outline">
<path id="Vector" d="M7.99441 25.375C7.43778 25.375 6.97337 25.1889 6.60121 24.8167C6.22904 24.4446 6.04255 23.9802 6.04175 23.4235V10.4098C6.04175 9.85396 6.22823 9.38996 6.60121 9.01779C6.97418 8.64562 7.43858 8.45914 7.99441 8.45833H10.2709V7.85417C10.2709 6.67967 10.6822 5.68118 11.5046 4.85871C12.3271 4.03624 13.3256 3.625 14.5001 3.625C15.6746 3.625 16.6731 4.03624 17.4955 4.85871C18.318 5.68118 18.7292 6.67967 18.7292 7.85417V8.45833H21.007C21.5628 8.45833 22.0268 8.64482 22.399 9.01779C22.7711 9.39076 22.9576 9.85517 22.9584 10.411V23.4235C22.9584 23.9794 22.7719 24.4438 22.399 24.8167C22.026 25.1897 21.562 25.3758 21.007 25.375H7.99441ZM7.99441 24.1667H21.007C21.1922 24.1667 21.3626 24.0893 21.5181 23.9347C21.6736 23.78 21.7509 23.6092 21.7501 23.4223V10.411C21.7501 10.2249 21.6727 10.0541 21.5181 9.89867C21.3634 9.74319 21.1926 9.66586 21.0057 9.66667H18.7292V12.6875C18.7292 12.8599 18.6717 13.0037 18.5565 13.1189C18.4413 13.2341 18.2975 13.2917 18.1251 13.2917C17.9527 13.2917 17.8089 13.2341 17.6937 13.1189C17.5785 13.0037 17.5209 12.8599 17.5209 12.6875V9.66667H11.4792V12.6875C11.4792 12.8599 11.4217 13.0037 11.3065 13.1189C11.1913 13.2341 11.0475 13.2917 10.8751 13.2917C10.7027 13.2917 10.5589 13.2341 10.4437 13.1189C10.3285 13.0037 10.2709 12.8599 10.2709 12.6875V9.66667H7.99441C7.80833 9.66667 7.63755 9.744 7.48208 9.89867C7.32661 10.0533 7.24928 10.2241 7.25008 10.411V23.4235C7.25008 23.6088 7.32741 23.7792 7.48208 23.9347C7.63675 24.0901 7.80712 24.1675 7.99321 24.1667M11.4792 8.45833H17.5209V7.85417C17.5209 7.0035 17.2301 6.28736 16.6485 5.70575C16.0669 5.12414 15.3507 4.83333 14.5001 4.83333C13.6494 4.83333 12.9333 5.12414 12.3517 5.70575C11.7701 6.28736 11.4792 7.0035 11.4792 7.85417V8.45833Z" fill="#3D3D3D"/>
</g>
</g>
</svg>
