<svg width="28" height="29" viewBox="0 0 28 29" fill="none" xmlns="http://www.w3.org/2000/svg">
<g id="Icon localizacion">
<path id="Vector" fill-rule="evenodd" clip-rule="evenodd" d="M14.2882 24.9639C15.63 23.7463 16.8719 22.423 18.0017 21.0065C20.3817 18.0164 21.8296 15.0682 21.9276 12.4467C21.9664 11.3813 21.79 10.319 21.409 9.32328C21.0281 8.32756 20.4503 7.41884 19.7103 6.65139C18.9703 5.88395 18.0832 5.27354 17.102 4.85661C16.1208 4.43968 15.0656 4.2248 13.9995 4.2248C12.9334 4.2248 11.8782 4.43968 10.897 4.85661C9.9158 5.27354 9.02869 5.88395 8.28867 6.65139C7.54865 7.41884 6.97091 8.32756 6.58995 9.32328C6.20899 10.319 6.03264 11.3813 6.07141 12.4467C6.17058 15.0682 7.61958 18.0164 9.99841 21.0065C11.1283 22.423 12.3701 23.7463 13.7119 24.9639C13.841 25.0805 13.9371 25.1653 14.0001 25.2182L14.2882 24.9639ZM13.1391 26.323C13.1391 26.323 4.66675 19.1877 4.66675 12.1667C4.66675 9.69135 5.65008 7.31738 7.40042 5.56704C9.15076 3.8167 11.5247 2.83337 14.0001 2.83337C16.4754 2.83337 18.8494 3.8167 20.5997 5.56704C22.3501 7.31738 23.3334 9.69135 23.3334 12.1667C23.3334 19.1877 14.8611 26.323 14.8611 26.323C14.3897 26.757 13.6139 26.7524 13.1391 26.323ZM14.0001 15.4334C14.8665 15.4334 15.6973 15.0892 16.31 14.4766C16.9226 13.864 17.2667 13.0331 17.2667 12.1667C17.2667 11.3003 16.9226 10.4694 16.31 9.85682C15.6973 9.24421 14.8665 8.90004 14.0001 8.90004C13.1337 8.90004 12.3028 9.24421 11.6902 9.85682C11.0776 10.4694 10.7334 11.3003 10.7334 12.1667C10.7334 13.0331 11.0776 13.864 11.6902 14.4766C12.3028 15.0892 13.1337 15.4334 14.0001 15.4334ZM14.0001 16.8334C12.7624 16.8334 11.5754 16.3417 10.7002 15.4665C9.82508 14.5914 9.33341 13.4044 9.33341 12.1667C9.33341 10.929 9.82508 9.74204 10.7002 8.86688C11.5754 7.99171 12.7624 7.50004 14.0001 7.50004C15.2378 7.50004 16.4247 7.99171 17.2999 8.86688C18.1751 9.74204 18.6667 10.929 18.6667 12.1667C18.6667 13.4044 18.1751 14.5914 17.2999 15.4665C16.4247 16.3417 15.2378 16.8334 14.0001 16.8334Z" fill="#3D3D3D"/>
</g>
</svg>
