<svg width="25" height="17" viewBox="0 0 25 17" fill="none" xmlns="http://www.w3.org/2000/svg">
<g id="Icono visa" clip-path="url(#clip0_55_5279)">
<path id="Vector" d="M22.6562 17H2.34375C1.04688 17 0 16.0508 0 14.875V2.125C0 0.949167 1.04688 0 2.34375 0H22.6562C23.9531 0 25 0.949167 25 2.125V14.875C25 16.0508 23.9531 17 22.6562 17ZM2.34375 1.41667C1.90625 1.41667 1.5625 1.72833 1.5625 2.125V14.875C1.5625 15.2717 1.90625 15.5833 2.34375 15.5833H22.6562C23.0938 15.5833 23.4375 15.2717 23.4375 14.875V2.125C23.4375 1.72833 23.0938 1.41667 22.6562 1.41667H2.34375Z" fill="#3D3D3D"/>
<path id="Vector_2" d="M20.6094 6.2758H19.4375C19.0781 6.2758 18.8125 6.37496 18.6406 6.7008L16.3906 11.3475H17.9844C17.9844 11.3475 18.2656 10.7241 18.3125 10.5825H20.2656C20.3281 10.7525 20.4531 11.3333 20.4531 11.3333H21.875L20.6094 6.28996V6.2758ZM18.75 9.53413C18.8906 9.23663 19.3594 8.11746 19.3594 8.11746C19.3594 8.1458 19.5 7.81996 19.5469 7.64996L19.6562 8.1033L20.0156 9.57663H18.75V9.5483V9.53413ZM16.5 9.6758C16.5 10.7241 15.4531 11.4183 13.8437 11.4183C13.1562 11.4183 12.5 11.2908 12.1406 11.1491L12.3594 10.0016L12.5469 10.0725C13.0469 10.2708 13.375 10.3416 13.9687 10.3416C14.4062 10.3416 14.875 10.1858 14.875 9.8458C14.875 9.61913 14.6875 9.47746 14.0781 9.22246C13.5 8.96746 12.7344 8.5708 12.7344 7.86246C12.7344 6.8708 13.7969 6.1908 15.3125 6.1908C15.8906 6.1908 16.375 6.28996 16.6875 6.41746L16.4688 7.5083L16.3594 7.40913C16.0781 7.30996 15.7344 7.2108 15.2031 7.2108C14.625 7.23913 14.3594 7.4658 14.3594 7.66413C14.3594 7.8908 14.6875 8.0608 15.2031 8.28746C16.0781 8.6558 16.4844 9.0808 16.4844 9.6758H16.5ZM3.125 6.3183L3.15625 6.21913H5.51562C5.84375 6.21913 6.09375 6.3183 6.17188 6.64413L6.6875 8.88246C6.17188 7.69246 4.95312 6.71496 3.125 6.3183Z" fill="#3D3D3D"/>
<path id="Vector_3" d="M10 6.27589L7.60937 11.3192H5.98437L4.60938 7.09756C5.59375 7.66423 6.42188 8.57089 6.71875 9.18006L6.89062 9.70423L8.375 6.24756H10V6.27589ZM10.6406 6.24756H12.1406L11.1875 11.3192H9.6875L10.6406 6.24756Z" fill="#3D3D3D"/>
</g>
<defs>
<clipPath id="clip0_55_5279">
<rect width="25" height="17" fill="white"/>
</clipPath>
</defs>
</svg>
