<svg width="8" height="8" viewBox="0 0 8 8" fill="none" xmlns="http://www.w3.org/2000/svg">
<g id="IconCopyR">
<path id="Vector" d="M7 4C7 4.39397 6.9224 4.78407 6.77164 5.14805C6.62087 5.51203 6.3999 5.84274 6.12132 6.12132C5.84274 6.3999 5.51203 6.62087 5.14805 6.77164C4.78407 6.9224 4.39397 7 4 7C3.60603 7 3.21593 6.9224 2.85195 6.77164C2.48797 6.62087 2.15726 6.3999 1.87868 6.12132C1.6001 5.84274 1.37913 5.51203 1.22836 5.14805C1.0776 4.78407 1 4.39397 1 4C1 3.20435 1.31607 2.44129 1.87868 1.87868C2.44129 1.31607 3.20435 1 4 1C4.79565 1 5.55871 1.31607 6.12132 1.87868C6.68393 2.44129 7 3.20435 7 4Z" stroke="#3D3D3D" stroke-width="0.6" stroke-linecap="round" stroke-linejoin="round"/>
<path id="Vector_2" d="M4.6667 2.99996C4.5067 2.79996 4.31003 2.66663 4.00003 2.66663C2.60936 2.66663 2.60936 5.33329 4.00003 5.33329C4.31003 5.33329 4.5067 5.19996 4.6667 4.99996" stroke="#3D3D3D" stroke-width="0.6" stroke-linecap="round" stroke-linejoin="round"/>
</g>
</svg>
