<svg width="25" height="17" viewBox="0 0 25 17" fill="none" xmlns="http://www.w3.org/2000/svg">
<g id="Icono paypal" clip-path="url(#clip0_55_5281)">
<path id="Vector" d="M23.3333 16.8333H1.66667C1.22464 16.8333 0.800716 16.6577 0.488155 16.3451C0.175595 16.0326 0 15.6087 0 15.1666L0 1.83329C0 1.39127 0.175595 0.967342 0.488155 0.654781C0.800716 0.342221 1.22464 0.166626 1.66667 0.166626L23.3333 0.166626C23.7754 0.166626 24.1993 0.342221 24.5118 0.654781C24.8244 0.967342 25 1.39127 25 1.83329V15.1666C25 15.6087 24.8244 16.0326 24.5118 16.3451C24.1993 16.6577 23.7754 16.8333 23.3333 16.8333ZM9.74444 7.33676C9.72539 7.33682 9.7066 7.34122 9.68951 7.34965C9.67242 7.35807 9.65748 7.37029 9.64583 7.38538C9.61847 7.41323 9.60282 7.45051 9.60208 7.48954C9.60208 7.50413 9.67014 7.71176 9.81597 8.13746L10.1312 9.05829L10.2778 9.48746C10.4421 9.96894 10.528 10.225 10.5354 10.2555C10.2122 10.6559 9.91991 11.0802 9.66111 11.525L9.63472 11.5736L9.63333 11.5909C9.63333 11.6604 9.68958 11.7173 9.75972 11.7173L9.77847 11.7159H9.77778H10.6236C10.663 11.7154 10.7016 11.705 10.7359 11.6857C10.7702 11.6664 10.7992 11.6388 10.8201 11.6055L10.8208 11.6048L13.6208 7.56385C13.6356 7.54451 13.6437 7.52085 13.6437 7.49649L13.6431 7.48607V7.48676C13.6423 7.44773 13.6267 7.41045 13.5993 7.3826C13.5877 7.36761 13.5729 7.35544 13.5559 7.34702C13.539 7.3386 13.5203 7.33414 13.5014 7.33399H12.6549C12.6154 7.33443 12.5766 7.34477 12.5422 7.36406C12.5077 7.38335 12.4787 7.41097 12.4576 7.4444L12.4569 7.4451L11.2903 9.1576L10.8076 7.51038C10.7953 7.46018 10.7665 7.41556 10.7258 7.38361C10.6852 7.35165 10.635 7.33418 10.5833 7.33399L10.5653 7.33468H10.566L9.74444 7.33676ZM19.4514 7.25968H19.4333C18.9069 7.25968 18.434 7.48815 18.1076 7.85065L18.1062 7.85204C17.7495 8.2214 17.5503 8.71494 17.5507 9.22843V9.24718V9.24649C17.5498 9.26732 17.5493 9.29001 17.5493 9.31454C17.5493 9.68746 17.6944 10.027 17.9306 10.2791L17.9299 10.2784C18.0641 10.4093 18.224 10.5111 18.3994 10.5773C18.5748 10.6435 18.762 10.6727 18.9493 10.6632H18.9458C19.1799 10.6604 19.4021 10.6125 19.6049 10.5263L19.5938 10.5305C19.7986 10.4534 19.9722 10.3333 20.109 10.1805L20.1104 10.1791C20.1035 10.218 20.0956 10.253 20.0868 10.284L20.0882 10.277C20.0766 10.3198 20.0692 10.3635 20.066 10.4076V10.409C20.066 10.5257 20.1137 10.5842 20.209 10.5847H20.9667C20.9963 10.5873 21.0261 10.584 21.0544 10.575C21.0826 10.5659 21.1088 10.5513 21.1314 10.5319C21.1539 10.5125 21.1723 10.4889 21.1855 10.4623C21.1987 10.4357 21.2065 10.4067 21.2083 10.377V10.3763L21.6583 7.51038C21.6625 7.48875 21.6618 7.46646 21.6561 7.44517C21.6505 7.42388 21.6401 7.40415 21.6257 7.38746C21.613 7.37049 21.5965 7.35666 21.5776 7.34703C21.5587 7.3374 21.5379 7.33222 21.5167 7.3319H20.6812C20.5792 7.3319 20.5146 7.45343 20.4937 7.6944C20.3715 7.53761 20.2107 7.41512 20.0271 7.33882C19.8435 7.26253 19.6432 7.23502 19.4458 7.25899L19.4514 7.25829V7.25968ZM6.97708 7.25968H6.95764C6.43194 7.25968 5.95903 7.48815 5.63403 7.85065L5.63264 7.85204C5.27591 8.2214 5.0767 8.71494 5.07708 9.22843V9.24718V9.24649C5.06772 9.43526 5.09661 9.62398 5.162 9.80131C5.2274 9.97864 5.32796 10.1409 5.45764 10.2784L5.45694 10.2777C5.70278 10.5166 6.03889 10.6638 6.40972 10.6638L6.47639 10.6625H6.47292C6.70347 10.659 6.92222 10.6111 7.12153 10.5257L7.11042 10.5298C7.31806 10.4507 7.49444 10.3312 7.63681 10.1791L7.6375 10.1784C7.61181 10.2465 7.59583 10.3257 7.59375 10.4076V10.409C7.59421 10.5257 7.6419 10.5842 7.7368 10.5847H8.49375C8.52333 10.5873 8.55315 10.584 8.58144 10.575C8.60972 10.5659 8.63591 10.5513 8.65844 10.5319C8.68097 10.5125 8.69939 10.4889 8.71261 10.4623C8.72583 10.4357 8.73359 10.4067 8.73542 10.377V10.3763L9.18611 7.51038C9.18999 7.48892 9.18902 7.46686 9.18325 7.44583C9.17748 7.42479 9.16707 7.40532 9.15278 7.38885C9.14005 7.37188 9.12361 7.35805 9.10471 7.34842C9.08581 7.33879 9.06496 7.33361 9.04375 7.33329H8.20833C8.10625 7.33329 8.04167 7.45482 8.02153 7.69579C7.89793 7.5403 7.73689 7.41873 7.55349 7.34245C7.37009 7.26618 7.17033 7.2377 6.97292 7.25968L6.97847 7.25899L6.97708 7.25968ZM22.6472 5.72218L22.6361 5.72149C22.603 5.72137 22.571 5.73374 22.5465 5.75612C22.5221 5.77851 22.507 5.80929 22.5042 5.84232L21.7903 10.4111C21.7844 10.4331 21.7843 10.4562 21.7901 10.4782C21.7958 10.5002 21.8071 10.5204 21.8229 10.5368C21.836 10.5523 21.8524 10.5648 21.8709 10.5733C21.8894 10.5818 21.9095 10.5862 21.9299 10.5861H22.659L22.6812 10.5875C22.7365 10.5875 22.7895 10.5655 22.8286 10.5264C22.8676 10.4874 22.8896 10.4344 22.8896 10.3791V10.3777L23.6021 5.88815L23.6028 5.87288C23.6029 5.83325 23.5899 5.7947 23.566 5.76315V5.76385C23.5404 5.73742 23.5055 5.72219 23.4687 5.72149L23.4583 5.72218H22.6472ZM14.5431 5.72218C14.5133 5.71849 14.4831 5.72107 14.4544 5.72974C14.4256 5.73841 14.399 5.75299 14.3763 5.77254C14.3535 5.79209 14.3351 5.81618 14.3222 5.84327C14.3093 5.87035 14.3022 5.89983 14.3014 5.92982L13.5882 10.4104C13.5843 10.4317 13.5852 10.4536 13.5909 10.4745C13.5965 10.4954 13.6068 10.5148 13.6208 10.5312C13.6331 10.5485 13.6494 10.5626 13.6682 10.5722C13.6871 10.5819 13.708 10.5869 13.7292 10.5868H14.6354C14.6762 10.5871 14.7158 10.5731 14.7473 10.5472C14.7788 10.5213 14.8001 10.4852 14.8076 10.4451V10.4437L15.0056 9.1701C15.0083 9.14243 15.0165 9.11557 15.0297 9.09112C15.0429 9.06667 15.0609 9.04512 15.0826 9.02774C15.1303 8.98988 15.1877 8.96522 15.2479 8.95621H15.25C15.3062 8.94579 15.3708 8.94024 15.4368 8.93954C15.4951 8.93954 15.5653 8.94325 15.6458 8.95065C15.7339 8.96092 15.8225 8.96556 15.9111 8.96454C16.4199 8.96537 16.9102 8.77359 17.2833 8.42774L17.2819 8.42913C17.468 8.23179 17.6117 7.99844 17.7042 7.74344C17.7966 7.48845 17.8358 7.21722 17.8194 6.94649V6.95204C17.8344 6.773 17.8037 6.59309 17.7302 6.42914C17.6567 6.26518 17.5429 6.12254 17.3993 6.01454L17.3965 6.01246C17.0652 5.80291 16.677 5.70125 16.2854 5.72149H16.2896L14.5431 5.72218ZM2.05556 5.72218C2.02651 5.71906 1.99713 5.72209 1.96932 5.73107C1.94152 5.74005 1.91591 5.75477 1.89417 5.77429C1.87243 5.7938 1.85503 5.81767 1.84312 5.84435C1.8312 5.87103 1.82503 5.89991 1.825 5.92913V5.93051L1.11111 10.4111C1.10724 10.4324 1.10816 10.4543 1.11381 10.4752C1.11945 10.4961 1.12968 10.5154 1.14375 10.5319C1.15602 10.5492 1.17227 10.5633 1.19113 10.5729C1.20998 10.5826 1.23089 10.5876 1.25208 10.5875H2.08819C2.11797 10.5911 2.14818 10.5886 2.1769 10.5799C2.20562 10.5712 2.23221 10.5567 2.25496 10.5371C2.27772 10.5176 2.29613 10.4935 2.30903 10.4664C2.32193 10.4393 2.32902 10.4098 2.32986 10.3798L2.52778 9.17218C2.53039 9.14456 2.53849 9.11774 2.55161 9.09329C2.56473 9.06885 2.5826 9.04727 2.60417 9.02982C2.65181 8.99197 2.70926 8.9673 2.76944 8.95829H2.77153C2.83299 8.94752 2.89524 8.94195 2.95764 8.94163H2.95833C3.01667 8.94163 3.08611 8.94533 3.16667 8.95274C3.25448 8.96298 3.34285 8.96761 3.43125 8.96663C3.96111 8.96663 4.44306 8.76315 4.80417 8.42982L4.80278 8.43121C4.98886 8.23388 5.13255 8.00052 5.22499 7.74553C5.31744 7.49053 5.35667 7.21931 5.34028 6.94857V6.95413C5.35522 6.77508 5.32452 6.59518 5.25105 6.43122C5.17757 6.26727 5.06372 6.12462 4.92014 6.01663L4.91736 6.01454C4.58744 5.80572 4.2011 5.70386 3.81111 5.72288H3.81528L2.05556 5.72218ZM19.4056 9.77426L19.3722 9.77496C19.1948 9.77513 19.023 9.71238 18.8875 9.59788L18.8889 9.59857C18.8266 9.54049 18.7769 9.47031 18.7428 9.39234C18.7086 9.31436 18.6908 9.23023 18.6903 9.1451L18.691 9.11385V9.0951C18.691 8.83538 18.7958 8.59996 18.966 8.42913C19.1333 8.2576 19.3667 8.15135 19.625 8.15135H19.6479H19.6465L19.6701 8.15065C19.8569 8.15065 20.0271 8.2194 20.1576 8.3326L20.1569 8.3319C20.2213 8.39169 20.2727 8.46411 20.3078 8.54465C20.343 8.62518 20.3611 8.7121 20.3611 8.79996L20.3604 8.83329V8.8319V8.84857C20.3604 9.10482 20.2542 9.33676 20.0826 9.50135C19.996 9.5877 19.8932 9.65612 19.7802 9.70271C19.6671 9.7493 19.5459 9.77315 19.4236 9.77288H19.4062L19.4056 9.77426ZM6.92014 9.77426L6.88542 9.77496C6.70347 9.77496 6.53611 9.70829 6.40833 9.59788L6.40903 9.59857C6.34796 9.54018 6.29937 9.47001 6.26619 9.39231C6.23301 9.3146 6.21592 9.23098 6.21597 9.14649L6.21667 9.11385V9.0951C6.21667 8.83538 6.32153 8.59996 6.49167 8.42913C6.65903 8.2576 6.89167 8.15135 7.15 8.15135H7.17431H7.17292L7.19653 8.15065C7.38333 8.15065 7.55347 8.2194 7.68403 8.3326L7.68333 8.3319C7.74751 8.39167 7.79869 8.46401 7.8337 8.54441C7.8687 8.62482 7.88678 8.71157 7.88681 8.79926L7.88611 8.83329V8.8319V8.85621C7.88611 9.11246 7.77986 9.34301 7.60833 9.5076C7.43051 9.67914 7.19292 9.77478 6.94583 9.77426H6.92014ZM15.1889 7.99649L15.3757 6.82218C15.3772 6.80489 15.3821 6.78807 15.3901 6.77267C15.3981 6.75727 15.409 6.7436 15.4223 6.73244C15.4356 6.72128 15.4509 6.71285 15.4675 6.70763C15.484 6.70242 15.5015 6.70052 15.5187 6.70204H15.716L15.7583 6.70135C15.8787 6.70135 15.997 6.70945 16.1132 6.72565L16.1 6.72426C16.2076 6.74371 16.3014 6.79232 16.375 6.86176C16.4173 6.90115 16.4509 6.9489 16.4737 7.00198C16.4966 7.05507 16.5081 7.11232 16.5076 7.1701L16.5069 7.19649V7.1951C16.5217 7.31112 16.5074 7.42898 16.4655 7.53816C16.4236 7.64734 16.3553 7.74444 16.2667 7.82079L16.266 7.82149C16.0447 7.94774 15.791 8.00573 15.5368 7.98815H15.541L15.1903 7.99926L15.1889 7.99649ZM2.70347 7.99649L2.89028 6.82218C2.89176 6.80489 2.89664 6.78807 2.90464 6.77267C2.91264 6.75727 2.9236 6.7436 2.93688 6.73244C2.95017 6.72128 2.96553 6.71285 2.98208 6.70763C2.99863 6.70242 3.01605 6.70052 3.03333 6.70204H3.24097C3.4633 6.68593 3.68582 6.73058 3.88472 6.83121L3.87778 6.82774C4.00926 6.91246 4.05324 7.08977 4.00972 7.35968C4.0066 7.46033 3.97921 7.55873 3.92988 7.64651C3.88055 7.73429 3.81074 7.80885 3.72639 7.86385L3.72431 7.86524C3.39531 7.98707 3.04273 8.03173 2.69375 7.99579L2.70347 7.99649Z" fill="#3D3D3D"/>
</g>
<defs>
<clipPath id="clip0_55_5281">
<rect width="25" height="17" fill="white"/>
</clipPath>
</defs>
</svg>
