<svg width="28" height="29" viewBox="0 0 28 29" fill="none" xmlns="http://www.w3.org/2000/svg">
<g id="Icon facebook">
<path id="Vector" d="M22.19 6.30418C20.5695 4.68438 18.5051 3.58149 16.2577 3.13496C14.0104 2.68844 11.6811 2.91835 9.56445 3.79561C7.44778 4.67288 5.63878 6.15809 4.3662 8.06346C3.09362 9.96882 2.41461 12.2088 2.41504 14.5C2.41504 17.5731 3.63541 20.5204 5.80785 22.6939C7.98029 24.8674 10.927 26.0893 14 26.0908C15.5207 26.0909 17.0267 25.7937 18.4334 25.2158C19.8352 24.6238 21.1105 23.7683 22.19 22.6958C23.2664 21.6196 24.1203 20.3419 24.7029 18.9356C25.2854 17.5294 25.5853 16.0222 25.5853 14.5C25.5853 12.9779 25.2854 11.4706 24.7029 10.0644C24.1203 8.65813 23.2664 7.38041 22.19 6.30418ZM21.3734 21.8675C19.7052 23.543 17.5161 24.6005 15.1667 24.8658V17.2125H17.36C17.6695 17.2125 17.9662 17.0896 18.185 16.8708C18.4038 16.652 18.5267 16.3553 18.5267 16.0458C18.5267 15.7364 18.4038 15.4397 18.185 15.2209C17.9662 15.0021 17.6695 14.8792 17.36 14.8792H15.1667V11.6825C15.1667 11.3731 15.2896 11.0764 15.5084 10.8576C15.7272 10.6388 16.024 10.5159 16.3334 10.5159H17.7334C18.0428 10.5159 18.3395 10.3929 18.5583 10.1741C18.7771 9.95535 18.9 9.6586 18.9 9.34918C18.9 9.03976 18.7771 8.74302 18.5583 8.52423C18.3395 8.30543 18.0428 8.18252 17.7334 8.18252H15.75C14.9765 8.18252 14.2346 8.48981 13.6876 9.03679C13.1407 9.58377 12.8334 10.3256 12.8334 11.0992V14.8792H10.6517C10.3423 14.8792 10.0455 15.0021 9.82675 15.2209C9.60796 15.4397 9.48504 15.7364 9.48504 16.0458C9.48504 16.3553 9.60796 16.652 9.82675 16.8708C10.0455 17.0896 10.3423 17.2125 10.6517 17.2125H12.8334V24.8658C10.6667 24.6187 8.63253 23.697 7.01806 22.2311C5.40359 20.7652 4.29047 18.8292 3.83592 16.6964C3.38137 14.5636 3.60837 12.3419 4.48486 10.3451C5.36134 8.34833 6.84301 6.67738 8.72058 5.56827C10.5981 4.45917 12.7767 3.96798 14.9486 4.16407C17.1204 4.36017 19.1758 5.23364 20.8243 6.66112C22.4728 8.08859 23.6313 9.99792 24.1359 12.1194C24.6405 14.2409 24.4659 16.4673 23.6367 18.4842C23.1075 19.7474 22.339 20.8963 21.3734 21.8675Z" fill="#3D3D3D"/>
</g>
</svg>
