<svg width="28" height="28" viewBox="0 0 28 28" fill="none" xmlns="http://www.w3.org/2000/svg">
<path d="M14.22 8.97C14.0795 9.11063 14.0007 9.30125 14.0007 9.5C14.0007 9.69875 14.0795 9.88937 14.22 10.03L17.44 13.25H8.75C8.55109 13.25 8.36032 13.329 8.21967 13.4697C8.07902 13.6103 8 13.8011 8 14C8 14.1989 8.07902 14.3897 8.21967 14.5303C8.36032 14.671 8.55109 14.75 8.75 14.75H17.44L14.22 17.97C14.1463 18.0387 14.0872 18.1215 14.0462 18.2135C14.0052 18.3055 13.9832 18.4048 13.9814 18.5055C13.9796 18.6062 13.9982 18.7062 14.0359 18.7996C14.0736 18.893 14.1297 18.9778 14.201 19.049C14.2722 19.1203 14.357 19.1764 14.4504 19.2141C14.5438 19.2518 14.6438 19.2704 14.7445 19.2686C14.8452 19.2668 14.9445 19.2448 15.0365 19.2038C15.1285 19.1628 15.2113 19.1037 15.28 19.03L19.78 14.53C19.9205 14.3894 19.9993 14.1988 19.9993 14C19.9993 13.8012 19.9205 13.6106 19.78 13.47L15.28 8.97C15.1394 8.82955 14.9488 8.75066 14.75 8.75066C14.5512 8.75066 14.3606 8.82955 14.22 8.97ZM14 2C7.373 2 2 7.373 2 14C2 20.627 7.373 26 14 26C20.627 26 26 20.627 26 14C26 7.373 20.627 2 14 2ZM3.5 14C3.5 8.201 8.201 3.5 14 3.5C19.799 3.5 24.5 8.201 24.5 14C24.5 19.799 19.799 24.5 14 24.5C8.201 24.5 3.5 19.799 3.5 14Z" fill="#3D3D3D"/>
</svg>
