<svg width="28" height="29" viewBox="0 0 28 29" fill="none" xmlns="http://www.w3.org/2000/svg">
<g id="Icon pinterest">
<path id="Vector" fill-rule="evenodd" clip-rule="evenodd" d="M14 2.25C7.24082 2.25 1.75 7.74082 1.75 14.5C1.75 21.2592 7.24082 26.75 14 26.75C20.7592 26.75 26.25 21.2592 26.25 14.5C26.25 7.74082 20.7592 2.25 14 2.25ZM14 3.31523C20.1835 3.31523 25.1848 8.31651 25.1848 14.5C25.1848 20.6835 20.1835 25.6848 14 25.6848C12.8689 25.6848 11.7778 25.5155 10.7492 25.2042C11.2074 24.4382 11.7989 23.3432 12.0339 22.4392C12.1735 21.9032 12.7475 19.7169 12.7475 19.7169C13.1206 20.429 14.2105 21.0317 15.371 21.0317C18.8244 21.0317 21.314 17.8558 21.314 13.9091C21.314 10.1254 18.2265 7.29522 14.2538 7.29522C9.31137 7.29522 6.68809 10.6124 6.68809 14.2243C6.68809 15.9041 7.58149 17.9951 9.01201 18.661C9.22868 18.7619 9.34505 18.7182 9.39482 18.5081C9.4331 18.3487 9.62637 17.5714 9.7131 17.2098C9.74088 17.0945 9.72743 16.9948 9.63408 16.8811C9.16059 16.3068 8.78106 15.2519 8.78106 14.268C8.78106 11.7422 10.6933 9.29771 13.9511 9.29771C16.7641 9.29771 18.7342 11.2153 18.7342 13.957C18.7342 17.0545 17.1701 19.2009 15.1349 19.2009C14.0109 19.2009 13.1693 18.2711 13.4393 17.1308C13.763 15.7699 14.388 14.3013 14.388 13.3183C14.388 12.4392 13.9162 11.7059 12.939 11.7059C11.7899 11.7059 10.8668 12.8939 10.8668 14.4865C10.8668 15.4999 11.21 16.1862 11.21 16.1862C11.21 16.1862 10.075 20.9853 9.86707 21.8785C9.65874 22.771 9.71455 23.9732 9.80049 24.8682C5.70257 23.2095 2.81523 19.1972 2.81523 14.5C2.81523 8.31648 7.81648 3.31523 14 3.31523Z" fill="#3D3D3D"/>
</g>
</svg>
