<svg width="30" height="30" viewBox="0 0 30 30" fill="none" xmlns="http://www.w3.org/2000/svg">
<circle cx="15" cy="15" r="15" fill="white"/>
<path fill-rule="evenodd" clip-rule="evenodd" d="M15 2.75C8.24082 2.75 2.75 8.24082 2.75 15C2.75 21.7592 8.24082 27.25 15 27.25C21.7592 27.25 27.25 21.7592 27.25 15C27.25 8.24082 21.7592 2.75 15 2.75ZM15 3.81523C21.1835 3.81523 26.1848 8.81651 26.1848 15C26.1848 21.1835 21.1835 26.1848 15 26.1848C13.8689 26.1848 12.7778 26.0155 11.7492 25.7042C12.2074 24.9382 12.7989 23.8432 13.0339 22.9392C13.1735 22.4032 13.7475 20.2169 13.7475 20.2169C14.1206 20.929 15.2105 21.5317 16.371 21.5317C19.8244 21.5317 22.314 18.3558 22.314 14.4091C22.314 10.6254 19.2265 7.79522 15.2538 7.79522C10.3114 7.79522 7.68809 11.1124 7.68809 14.7243C7.68809 16.4041 8.58149 18.4951 10.012 19.161C10.2287 19.2619 10.3451 19.2182 10.3948 19.0081C10.4331 18.8487 10.6264 18.0714 10.7131 17.7098C10.7409 17.5945 10.7274 17.4948 10.6341 17.3811C10.1606 16.8068 9.78106 15.7519 9.78106 14.768C9.78106 12.2422 11.6933 9.79771 14.9511 9.79771C17.7641 9.79771 19.7342 11.7153 19.7342 14.457C19.7342 17.5545 18.1701 19.7009 16.1349 19.7009C15.0109 19.7009 14.1693 18.7711 14.4393 17.6308C14.763 16.2699 15.388 14.8013 15.388 13.8183C15.388 12.9392 14.9162 12.2059 13.939 12.2059C12.7899 12.2059 11.8668 13.3939 11.8668 14.9865C11.8668 15.9999 12.21 16.6862 12.21 16.6862C12.21 16.6862 11.075 21.4853 10.8671 22.3785C10.6587 23.271 10.7146 24.4732 10.8005 25.3682C6.70257 23.7095 3.81523 19.6972 3.81523 15C3.81523 8.81648 8.81648 3.81523 15 3.81523Z" fill="#9AE5F6"/>
</svg>
